<svg xmlns="http://www.w3.org/2000/svg" viewBox="0 0 32 32">
  <title>scale</title>
  <rect width="32" height="32" fill="white"/>
  <g id="scale" transform="translate(4, 4) scale(0.75)">
    <path d="M24.06,5H22a3.06,3.06,0,0,0-3-3H13.06A3.06,3.06,0,0,0,10,5H7.94A4,4,0,0,0,4,9.07V25.93A4,4,0,0,0,7.94,30H24.06A4,4,0,0,0,28,25.93V9.07A4,4,0,0,0,24.06,5ZM12,5.06A1.07,1.07,0,0,1,13.06,4h5.88A1.07,1.07,0,0,1,20,5.06V7.94A1.07,1.07,0,0,1,18.94,9H17V7a1,1,0,0,0-2,0V9H13.06A1.07,1.07,0,0,1,12,7.94ZM26,25.93A2,2,0,0,1,24.06,28H7.94A2,2,0,0,1,6,25.93V9.07A2,2,0,0,1,7.94,7H10v.94A3.06,3.06,0,0,0,13.06,11h5.88A3.06,3.06,0,0,0,22,7.94V7h2.06A2,2,0,0,1,26,9.07ZM11.5,14A3.5,3.5,0,0,0,8,17.5a1.36,1.36,0,0,0,0,.2l1,4.9c0,1.09.08,3.4,2.5,3.4S14,23.69,14,22.6l1-4.9a1.36,1.36,0,0,0,0,.2A3.5,3.5,0,0,0,11.5,14ZM12,22.3a1.36,1.36,0,0,0,0,.2c0,1.5-.18,1.5-.5,1.5s-.5,0-.5-1.5a1.36,1.36,0,0,0,0-.2l-1-4.89a1.5,1.5,0,0,1,3,0ZM20.5,14A3.5,3.5,0,0,0,17,17.5a1.36,1.36,0,0,0,0,.2l1,4.9c0,1.09.08,3.4,2.5,3.4S23,23.69,23,22.6l1-4.9a1.36,1.36,0,0,0,0,.2A3.5,3.5,0,0,0,20.5,14ZM21,22.3a1.36,1.36,0,0,0,0,.2c0,1.5-.18,1.5-.5,1.5s-.5,0-.5-1.5a1.36,1.36,0,0,0,0,.2l-1-4.89a1.5,1.5,0,0,1,3,0Z"/>
  </g>
</svg>
